<?xml version="1.0" encoding="utf-8"?><svg xmlns="http://www.w3.org/2000/svg" xmlns:xlink="http://www.w3.org/1999/xlink"><symbol viewBox="0 0 11 18" id="arrow-prev" xmlns="http://www.w3.org/2000/svg"><path d="M1.707.293A1 1 0 0 0 .293 1.707L1.707.293zM9 9l.707.707.707-.707-.707-.707L9 9zM.293 16.293a1 1 0 1 0 1.414 1.414L.293 16.293zm0-14.586l8 8 1.414-1.414-8-8L.293 1.707zm8 6.586l-8 8 1.414 1.414 8-8-1.414-1.414z"/></symbol><symbol viewBox="0 0 10 10" id="delete" xmlns="http://www.w3.org/2000/svg"><path d="M1.414.21L0 1.624l3.293 3.293L0 8.21l1.414 1.414 3.293-3.293L8 9.624 9.414 8.21 6.121 4.917l3.293-3.293L8 .21 4.707 3.503 1.414.21z"/></symbol><symbol viewBox="0 0 24 24" id="facebook" xmlns="http://www.w3.org/2000/svg"><path d="M23.998 12c0-6.628-5.372-12-11.999-12C5.372 0 0 5.372 0 12c0 5.988 4.388 10.952 10.124 11.852v-8.384H7.078v-3.469h3.046V9.356c0-3.008 1.792-4.669 4.532-4.669 1.313 0 2.686.234 2.686.234v2.953H15.83c-1.49 0-1.955.925-1.955 1.874V12h3.328l-.532 3.469h-2.796v8.384c5.736-.9 10.124-5.864 10.124-11.853z"/></symbol><symbol viewBox="0 0 24 24" id="insta" xmlns="http://www.w3.org/2000/svg"><path d="M12 0C8.74 0 8.333.015 7.053.072 5.775.132 4.905.333 4.14.63a5.876 5.876 0 0 0-2.126 1.384A5.855 5.855 0 0 0 .63 4.14C.333 4.905.131 5.775.072 7.053.012 8.333 0 8.74 0 12s.015 3.667.072 4.947c.06 1.277.261 2.148.558 2.913a5.885 5.885 0 0 0 1.384 2.126A5.868 5.868 0 0 0 4.14 23.37c.766.296 1.636.499 2.913.558C8.333 23.988 8.74 24 12 24s3.667-.015 4.947-.072c1.277-.06 2.148-.262 2.913-.558a5.898 5.898 0 0 0 2.126-1.384 5.86 5.86 0 0 0 1.384-2.126c.296-.765.499-1.636.558-2.913.06-1.28.072-1.687.072-4.947s-.015-3.667-.072-4.947c-.06-1.277-.262-2.149-.558-2.913a5.89 5.89 0 0 0-1.384-2.126A5.847 5.847 0 0 0 19.86.63c-.765-.297-1.636-.499-2.913-.558C15.667.012 15.26 0 12 0zm0 2.16c3.203 0 3.585.016 4.85.071 1.17.055 1.805.249 2.227.415.562.217.96.477 1.382.896.419.42.679.819.896 1.381.164.422.36 1.057.413 2.227.057 1.266.07 1.646.07 4.85 0 3.204-.015 3.585-.074 4.85-.061 1.17-.256 1.805-.421 2.227a3.81 3.81 0 0 1-.899 1.382 3.744 3.744 0 0 1-1.38.896c-.42.164-1.065.36-2.235.413-1.274.057-1.649.07-4.859.07-3.211 0-3.586-.015-4.859-.074-1.171-.061-1.816-.256-2.236-.421a3.716 3.716 0 0 1-1.379-.899 3.644 3.644 0 0 1-.9-1.38c-.165-.42-.359-1.065-.42-2.235-.045-1.26-.061-1.649-.061-4.844 0-3.196.016-3.586.061-4.861.061-1.17.255-1.814.42-2.234.21-.57.479-.96.9-1.381.419-.419.81-.689 1.379-.898.42-.166 1.051-.361 2.221-.421 1.275-.045 1.65-.06 4.859-.06l.045.03zm0 3.678a6.162 6.162 0 1 0 0 12.324 6.162 6.162 0 1 0 0-12.324zM12 16c-2.21 0-4-1.79-4-4s1.79-4 4-4 4 1.79 4 4-1.79 4-4 4zm7.846-10.405a1.441 1.441 0 0 1-2.88 0 1.44 1.44 0 0 1 2.88 0z"/></symbol><symbol viewBox="0 0 29 33" id="play" xmlns="http://www.w3.org/2000/svg"><path d="M27.5 13.877c2 1.155 2 4.042 0 5.196l-23 13.28c-2 1.154-4.5-.29-4.5-2.599V3.196C0 .886 2.5-.557 4.5.598l23 13.28z"/></symbol><symbol viewBox="0 0 12 12" id="settings" xmlns="http://www.w3.org/2000/svg"><path fill-rule="evenodd" clip-rule="evenodd" d="M4.576 0l-.3 1.514a4.897 4.897 0 0 0-1.372.775l-1.48-.502L0 4.213l1.184 1.011c-.042.253-.069.511-.069.776s.027.523.07.776L0 7.787l1.424 2.426 1.48-.502c.407.329.87.589 1.371.775L4.576 12h2.848l.3-1.514a4.896 4.896 0 0 0 1.372-.775l1.48.502L12 7.787l-1.184-1.011c.042-.253.069-.511.069-.776s-.027-.523-.07-.776L12 4.213l-1.424-2.426-1.48.502a4.896 4.896 0 0 0-1.372-.775L7.424 0H4.576zM6 3.6c1.349 0 2.442 1.075 2.442 2.4S7.35 8.4 6 8.4C4.651 8.4 3.558 7.325 3.558 6S4.65 3.6 6 3.6z"/></symbol><symbol viewBox="0 0 24 20" id="twitter" xmlns="http://www.w3.org/2000/svg"><path d="M23.954 2.57a10 10 0 0 1-2.825.774A4.958 4.958 0 0 0 23.292.621c-.951.555-2.005.96-3.127 1.184a4.92 4.92 0 0 0-8.384 4.482C7.691 6.094 4.066 4.13 1.64 1.161a4.822 4.822 0 0 0-.666 2.475c0 1.71.87 3.213 2.188 4.096a4.904 4.904 0 0 1-2.228-.616v.061a4.923 4.923 0 0 0 3.946 4.827 4.996 4.996 0 0 1-2.212.085 4.937 4.937 0 0 0 4.604 3.417 9.868 9.868 0 0 1-6.102 2.105c-.39 0-.779-.023-1.17-.067a13.995 13.995 0 0 0 7.557 2.21c9.054 0 13.999-7.497 13.999-13.987 0-.209 0-.42-.015-.63a9.936 9.936 0 0 0 2.46-2.548l-.047-.02z"/></symbol><symbol viewBox="0 0 24 15" id="vk" xmlns="http://www.w3.org/2000/svg"><path d="M23.057 14.302h-2.62c-.992 0-1.298-.789-3.08-2.595-1.552-1.502-2.24-1.705-2.62-1.705-.536 0-.689.153-.689.891v2.366c0 .637-.203 1.019-1.882 1.019-2.774 0-5.854-1.68-8.016-4.81C.892 4.887 0 1.45 0 .738 0 .358.153.002.891.002h2.62c.661 0 .917.305 1.172 1.017 1.297 3.74 3.46 7.024 4.351 7.024.33 0 .484-.153.484-.992v-3.87C9.416 1.399 8.474 1.247 8.474.61c0-.306.255-.611.661-.611h4.123c.56 0 .763.305.763.966v5.218c0 .56.255.763.407.763.33 0 .612-.204 1.222-.814 1.884-2.112 3.232-5.37 3.232-5.37.178-.381.483-.737 1.146-.737h2.62c.79 0 .968.405.79.966C23.106 2.52 19.9 7.048 19.9 7.048c-.28.458-.381.661 0 1.172.28.382 1.196 1.17 1.808 1.883 1.12 1.272 1.983 2.34 2.213 3.08.255.736-.128 1.118-.866 1.118l.002.001z"/></symbol></svg>