<svg width="106" height="32" fill="none" xmlns="http://www.w3.org/2000/svg"><path d="M4.272 23V7H.816v16h3.456zM16.38 6.584c-2.271 0-3.903.832-4.96 2.464V7H7.966v16h3.456v-8.576c0-3.104 1.632-4.608 4.064-4.608 2.208 0 3.584 1.312 3.584 3.712V23h3.456v-9.824c0-4.096-2.464-6.592-6.144-6.592zm12.65 4.832c0-1.12 1.024-1.696 2.336-1.696 1.44 0 2.464.608 3.008 1.824l2.912-1.632c-1.12-2.08-3.264-3.328-5.92-3.328-1.664 0-3.072.448-4.192 1.344-1.12.896-1.664 2.08-1.664 3.552-.064 3.36 3.168 4.32 5.568 4.928 1.696.416 3.04 1.024 3.04 2.048 0 1.184-.896 1.792-2.72 1.792-1.824 0-3.008-.768-3.552-2.304l-2.976 1.728c1.024 2.336 3.36 3.744 6.528 3.744 1.792 0 3.264-.448 4.448-1.312 1.184-.864 1.792-2.08 1.792-3.616.064-3.424-3.136-4.448-5.6-4.992-1.664-.48-3.008-1.024-3.008-2.08zm20.382-4.832c-2.432 0-4.288.896-5.6 2.72V7h-3.456v22.4h3.456v-8.672c1.312 1.792 3.168 2.688 5.6 2.688 2.208 0 4.064-.8 5.632-2.432 1.568-1.632 2.336-3.616 2.336-5.984 0-2.336-.768-4.32-2.336-5.952-1.568-1.632-3.424-2.464-5.632-2.464zm-4.16 12.096c-.96-.992-1.44-2.208-1.44-3.68s.48-2.688 1.44-3.648c.96-.992 2.176-1.472 3.616-1.472s2.656.48 3.616 1.472c.96.96 1.44 2.176 1.44 3.648s-.48 2.688-1.44 3.68c-.96.96-2.176 1.44-3.616 1.44s-2.656-.48-3.616-1.44zM63.648 7h-3.456v16h3.456v-8.064c0-1.632.48-2.816 1.472-3.52.992-.736 2.144-1.056 3.456-.96V6.712c-2.4 0-4.064.992-4.928 2.976V7zm10.618 16V7H70.81v16h3.456zM86.374 6.584c-2.271 0-3.903.832-4.96 2.464V7h-3.456v16h3.457v-8.576c0-3.104 1.631-4.608 4.063-4.608 2.209 0 3.585 1.312 3.585 3.712V23h3.456v-9.824c0-4.096-2.465-6.592-6.145-6.592zM104.848 7h-3.968V2.52l-3.456 1.024V7H94.48v3.328h2.944v7.68c0 4.192 2.144 5.632 7.424 4.992v-3.104c-2.624.128-3.968.16-3.968-1.888v-7.68h3.968V7z" fill="#000"/><circle cx="2.5" cy="2.5" r="2.5" fill="#496ADC"/><circle cx="72.6" cy="2.5" r="2.5" fill="#496ADC"/></svg>